<?xml version="1.0" encoding="utf-8"?>
<!-- Generator: Adobe Illustrator 21.1.0, SVG Export Plug-In . SVG Version: 6.00 Build 0)  -->
<svg version="1.1" id="Layer_1" xmlns="http://www.w3.org/2000/svg" xmlns:xlink="http://www.w3.org/1999/xlink" x="0px" y="0px"
	 viewBox="0 0 100 100" style="enable-background:new 0 0 100 100;" xml:space="preserve">
<style type="text/css">
	.st0{fill:#008B8B;}
	.st1{fill:#F0F8FF;}
</style>
<circle class="st0" cx="49.6" cy="50.4" r="47.6"/>
<path class="st1" d="M23.5,67.3V27.5c0,0,6-7,17.9-4s13.9,9,13.9,9L23.5,67.3z"/>
<path class="st1" d="M26.3,69.5L53,39.6l6.1-4.1c0,0,1.7-2.5,13,0C83.3,38,83.3,38,83.3,38l-0.9,3.3l-13.3-1.4
	c-2-0.2-4.1,0.4-5.5,1.7l-22,18.9c-2.6,2.3-2.5,6.3,0.3,8.3l3.3,2.5L79,72.3c0,0,1.7,1.7-0.9,3.3c-2.6,1.7-53.6,0.8-53.6,0.8V74
	C24.5,72.4,25.2,70.8,26.3,69.5z"/>
</svg>
