<?xml version="1.0" encoding="utf-8"?>
<!-- Generator: Adobe Illustrator 21.1.0, SVG Export Plug-In . SVG Version: 6.00 Build 0)  -->
<svg version="1.1" id="Layer_1" xmlns="http://www.w3.org/2000/svg" xmlns:xlink="http://www.w3.org/1999/xlink" x="0px" y="0px"
	 viewBox="0 0 100 100" style="enable-background:new 0 0 100 100;" xml:space="preserve">
<style type="text/css">
	.st0{fill:#F0F8FF;}
</style>
<path class="st0" d="M4,75.5V14.9c0,0,9.1-10.7,27.2-6.1s21.2,13.7,21.2,13.7L4,75.5z"/>
<path class="st0" d="M8.3,78.9l40.6-45.5l9.3-6.2c0,0,2.6-3.8,19.8,0c17,3.8,17,3.8,17,3.8l-1.4,5l-20.2-2.1c-3-0.3-6.2,0.6-8.4,2.6
	L31.5,65.2c-4,3.5-3.8,9.6,0.5,12.6l5,3.8l51.4,1.5c0,0,2.6,2.6-1.4,5c-4,2.6-81.6,1.2-81.6,1.2v-3.7C5.5,83.3,6.6,80.8,8.3,78.9z"
	/>
</svg>
